<svg width="512" height="512" viewBox="0 0 512 512" fill="none" xmlns="http://www.w3.org/2000/svg">
<g clip-path="url(#clip0_208_2)">
<path d="M27.1 299L38.88 263.28L10.38 243.9H45.72L58.26 205.9L70.8 243.9H106.14L77.64 263.28L89.42 299L58.26 276.58L27.1 299ZM170.677 152.182C164.469 152.182 159.117 150.068 154.619 145.839C150.21 141.611 148.006 136.528 148.006 130.591C148.006 124.653 150.21 119.571 154.619 115.342C159.117 111.114 164.469 109 170.677 109C176.884 109 182.192 111.114 186.6 115.342C191.098 119.571 193.347 124.653 193.347 130.591C193.347 136.528 191.098 141.611 186.6 145.839C182.192 150.068 176.884 152.182 170.677 152.182ZM367.123 424.02C324.943 361.7 293.023 330.16 235.263 290.26V288.36C294.923 247.7 326.083 216.16 367.123 155.36H369.023C412.723 218.82 444.643 250.36 501.263 288.36V290.26C451.483 323.7 418.043 352.58 369.023 424.02H367.123ZM368.263 380.7C401.323 336.24 426.023 313.06 460.223 289.5C423.743 263.66 398.663 240.48 368.263 197.92C334.823 242 311.263 264.8 276.303 289.5C310.503 313.82 333.303 335.48 368.263 380.7Z" fill="black"/>
</g>
<defs>
<clipPath id="clip0_208_2">
<rect width="512" height="512" fill="white"/>
</clipPath>
</defs>
</svg>
